# xmcd
#
# Track frame offsets: 
#        150
#        15388
#        26870
#        43954
#        61003
#        76729
#        89203
#        106673
#        118534
#        131363
#        145510
#
# Disc length: 2143 seconds
#
# Revision: 0
# Processed by: cddbd v1.5.2PL0 Copyright (c) Steve Scherf et al.
# Submitted via: ExactAudioCopy v0.95b4
#
DISCID=84085d0b
DTITLE=Wild Billy Childish and Th Blackhands - Captain Calypso's Hoo Doo
DTITLE=Party
DYEAR=1988
DGENRE=Latin
TTITLE0=rum 'n coca-cola
TTITLE1=underneath the mango tree
TTITLE2=i love paris
TTITLE3=long tall shorty
TTITLE4=capt'n jack is boss
TTITLE5=sen' me to the 'lectric chair
TTITLE6=anarchy in the u.k.
TTITLE7=three blind mice
TTITLE8=tequila
TTITLE9=yella skinned babys
TTITLE10=dread luck
EXTD=
EXTT0=
EXTT1=
EXTT2=
EXTT3=
EXTT4=
EXTT5=
EXTT6=
EXTT7=
EXTT8=
EXTT9=
EXTT10=
PLAYORDER=
